<svg width="24" height="24" viewBox="0 0 24 24" fill="none" xmlns="http://www.w3.org/2000/svg">
<path fill-rule="evenodd" clip-rule="evenodd" d="M17.636 22.5834H1.84997V2.24257H12.613V6.63267C12.613 6.92534 12.8545 7.1668 13.1581 7.1668H17.636C17.7202 7.1668 17.808 7.16314 17.8958 7.15948C17.9909 7.15948 18.0824 7.15582 18.1811 7.15582C18.3677 7.15582 18.547 7.15948 18.7262 7.1668V6.63267C18.7262 6.48268 18.664 6.34732 18.5653 6.2522L13.5423 1.33163L13.5386 1.32797C13.5167 1.30602 13.4874 1.28407 13.4618 1.26578C13.4545 1.26212 13.4508 1.25846 13.4471 1.25846C13.4435 1.2548 13.4398 1.2548 13.4362 1.25114C13.4142 1.23651 13.3886 1.22553 13.3667 1.21456C13.3593 1.21456 13.3557 1.2109 13.3484 1.2109C13.3411 1.20724 13.3374 1.20724 13.3301 1.20358L13.3191 1.19993C13.3008 1.19261 13.2825 1.18895 13.2642 1.18529C13.2313 1.17797 13.1947 1.17432 13.1581 1.17432H1.30487C1.00488 1.17432 0.759766 1.41211 0.759766 1.70845V23.1175C0.759766 23.4138 1.00488 23.6516 1.30487 23.6516H18.1811C18.4811 23.6516 18.7262 23.4138 18.7262 23.1175V21.1676C18.386 21.3761 18.0165 21.5444 17.636 21.6651V22.5834ZM13.7032 2.99987L16.8641 6.09854H13.7032V2.99987Z" fill="white"/>
<path d="M11.5965 12.6288H3.93945L3.94311 11.5605H11.7099C11.6477 11.9081 11.6148 12.2666 11.5965 12.6288Z" fill="white"/>
<path d="M11.5672 15.3068H3.94311L3.93945 14.2385H11.5307C11.5343 14.597 11.5416 14.9556 11.5672 15.3068Z" fill="white"/>
<path d="M3.93945 17.9884H12.4672C12.3465 17.8311 12.2331 17.6628 12.138 17.4798C12.0428 17.2969 11.9624 17.1103 11.8965 16.9201H3.94311L3.93945 17.9884Z" fill="white"/>
<path d="M14.3403 20.67H3.94311L3.93945 19.5981H14.2598C14.1611 19.8359 14.1355 20.0993 14.205 20.359C14.2342 20.4688 14.2818 20.5712 14.3403 20.67Z" fill="white"/>
<path fill-rule="evenodd" clip-rule="evenodd" d="M18.9139 7.36069L18.72 7.35337C18.5444 7.34606 18.3651 7.3424 18.1822 7.3424C18.087 7.3424 17.9956 7.34606 17.9041 7.34971C17.8579 7.34971 17.8127 7.35065 17.7679 7.35157H17.7679H17.7678H17.7678H17.7678H17.7678H17.7678H17.7677C17.7239 7.35248 17.6805 7.35337 17.6371 7.35337H13.1592C12.7567 7.35337 12.4238 7.03509 12.4238 6.63267V2.42915H2.03758V22.3968H17.4476L17.4505 21.6651V21.5297L17.5785 21.4895C17.948 21.3688 18.3029 21.2078 18.6285 21.0066L18.9139 20.8346V21.1675V23.1175C18.9139 23.5199 18.5809 23.8382 18.1822 23.8382H1.3059C0.903476 23.8382 0.574219 23.5199 0.574219 23.1175V1.70844C0.574219 1.30601 0.903476 0.987732 1.3059 0.987732H13.1592C13.2067 0.987732 13.2543 0.991391 13.3018 1.00237C13.3348 1.00602 13.364 1.017 13.3787 1.02432L13.3933 1.02797H13.397C13.399 1.03 13.4055 1.03203 13.414 1.03468L13.414 1.03468L13.4141 1.03468C13.4209 1.03682 13.4291 1.03935 13.4372 1.04261C13.4742 1.05605 13.5049 1.07257 13.5267 1.08651H13.5287C13.5287 1.08746 13.5301 1.08866 13.5327 1.09017H13.536L13.5351 1.09157L13.5402 1.09427C13.5471 1.09791 13.5562 1.10271 13.5649 1.10904L13.5652 1.10846C13.5964 1.13028 13.6276 1.15476 13.6565 1.1819L13.6567 1.18163L13.6677 1.18894L13.675 1.19626L18.6943 6.11683C18.8297 6.24853 18.9139 6.42779 18.9139 6.63267V6.63632V6.64364V7.1668V7.36069ZM3.75338 12.8154V12.6288V11.5605V11.3703H3.94362H11.7104H11.9336L11.8934 11.5935C11.8312 11.93 11.8019 12.2813 11.7836 12.6361L11.7763 12.8154H11.597H3.93996H3.75338ZM3.75338 15.3068V15.497H3.94362H11.5678H11.769L11.7543 15.2958C11.7287 14.9482 11.7214 14.5934 11.7177 14.2385V14.0519H11.5312H3.93996H3.75338V14.2385V15.3068ZM12.8482 18.175H12.4677H3.93996H3.75338V17.9884V16.9201V16.7335H3.94362H11.897H12.0324L12.0763 16.8579C12.1385 17.0409 12.2116 17.2201 12.3031 17.3921C12.3946 17.564 12.5007 17.7213 12.6177 17.875L12.8482 18.175ZM3.75338 20.67V20.8566H3.94362H14.3408H14.6737L14.5018 20.5712C14.4506 20.4871 14.4103 20.3993 14.3847 20.3078L14.3839 20.3081C14.3301 20.0897 14.3486 19.8678 14.4323 19.6713L14.5384 19.4115H14.2603H3.93996H3.75338V19.5981V20.67ZM16.203 20.67H16.1993H16.1883C15.9103 20.67 15.6579 20.4834 15.5884 20.209C15.5115 19.931 15.6469 19.642 15.903 19.5103C16.2059 19.3558 16.436 19.1412 16.5665 18.9162C15.7453 18.8631 15.1006 18.6834 14.5969 18.4018C14.0408 18.0872 13.6677 17.6555 13.4189 17.1543C12.9359 16.1738 12.936 14.9266 12.936 13.8063V13.7812C12.936 13.141 12.936 12.4934 13.0165 11.8898C13.1006 11.2862 13.2616 10.7081 13.6018 10.2106C14.286 9.20819 15.6323 8.59358 18.1822 8.59358C20.7321 8.59358 22.0747 9.20819 22.7625 10.2143C23.0991 10.7081 23.2637 11.2862 23.3442 11.8898C23.4247 12.4971 23.4247 13.141 23.4247 13.7812V13.8061C23.4247 14.9265 23.4247 16.1774 22.9381 17.1616C22.6893 17.6628 22.3125 18.0945 21.7528 18.4091C21.2105 18.7103 20.5069 18.8914 19.5954 18.9291C18.8365 19.9694 17.5441 20.6379 16.203 20.67ZM18.745 17.0166C18.5857 17.1572 18.3983 17.2228 18.1875 17.2228C17.972 17.2228 17.7799 17.1572 17.6206 17.0213C17.4566 16.8808 17.377 16.6887 17.377 16.4404C17.377 16.2249 17.4566 16.0421 17.6112 15.8922C17.7658 15.7423 17.9532 15.6627 18.1781 15.6627C18.3983 15.6627 18.5904 15.7423 18.7497 15.8922C18.909 16.0421 18.9839 16.2249 18.9839 16.4404C18.9839 16.684 18.9043 16.8761 18.745 17.0166ZM18.8343 12.3128L18.638 14.5121C18.618 14.7725 18.5739 14.9728 18.5018 15.113C18.4337 15.2532 18.3175 15.3253 18.1573 15.3253C17.993 15.3253 17.8769 15.2572 17.8128 15.121C17.7487 14.9848 17.7046 14.7805 17.6766 14.5041L17.5323 12.3648C17.5043 11.9482 17.4883 11.6518 17.4883 11.4675C17.4883 11.2231 17.5564 11.0268 17.6886 10.8906C17.8208 10.7504 17.993 10.6823 18.2094 10.6823C18.4698 10.6823 18.646 10.7704 18.7342 10.9507C18.8223 11.127 18.8664 11.3794 18.8664 11.7119C18.8664 11.9122 18.8543 12.1085 18.8343 12.3128Z" fill="white"/>
<path fill-rule="evenodd" clip-rule="evenodd" d="M15.7681 20.1615C15.8193 20.3517 15.9912 20.4798 16.1888 20.4798H16.1998C17.5168 20.4505 18.7863 19.7773 19.4997 18.742C23.2386 18.6359 23.2386 16.0604 23.2386 13.7812C23.2386 11.213 23.2386 8.78381 18.1826 8.78381C13.123 8.78381 13.123 11.2093 13.123 13.7812C13.123 16.0567 13.123 18.6249 16.8363 18.742C16.829 18.7786 16.818 18.8115 16.8107 18.8408C16.6863 19.1701 16.3864 19.4737 15.9876 19.6786C15.8083 19.77 15.7169 19.9712 15.7681 20.1615ZM13.9937 13.7812C13.9937 11.2825 13.9938 9.63257 18.1826 9.63257C22.3679 9.63257 22.3679 11.2825 22.3679 13.7812C22.3679 16.1702 22.3679 17.8933 19.2582 17.8933C19.1046 17.8933 18.9619 17.9738 18.8814 18.1055C18.5887 18.6067 18.1131 19.0164 17.5607 19.2871C17.5827 19.2359 17.6046 19.1883 17.6266 19.1371C17.6375 19.1042 17.8497 18.5152 17.5863 18.1384C17.4729 17.9847 17.301 17.8933 17.1034 17.8933C13.9938 17.8933 13.9937 16.1702 13.9937 13.7812Z" fill="white"/>
</svg>
