<svg width="165" height="191" viewBox="0 0 165 191" fill="none" xmlns="http://www.w3.org/2000/svg">
<path d="M1.3208 1.88962L162.719 1.32715L163.245 152.497L1.84686 153.059L1.3208 1.88962Z" fill="#47234C"/>
<path d="M0.570717 155.342L164.537 154.771L163.999 0.0448074L0.0322266 0.615984L0.570717 155.342ZM2.60994 3.16555L161.439 2.61178L161.96 152.222L3.13062 152.775L2.60994 3.16555Z" fill="white"/>
<path d="M98.4682 17.9468L57.968 92.3772L40.5449 92.4377C40.5449 92.4377 65.4588 47.1104 67.5995 43.2034C70.2161 38.3944 66.3473 37.989 66.3473 37.989L51.8569 38.0396L98.4682 17.9468Z" fill="white"/>
<path d="M98.905 47.7483L81.9269 47.8072L91.2436 64.5155L73.0215 64.5242L80.707 77.1216L98.2195 77.0607L106.657 92.2076L123.638 92.1479L98.905 47.7483Z" fill="white"/>
<path d="M155.855 173.496L155.076 177.287C154.837 178.424 155.052 178.899 156.055 178.896C156.573 178.894 157.059 178.814 157.484 178.676L157.503 179.872C156.972 180.057 156.182 180.199 155.543 180.201C153.809 180.207 153.138 179.688 153.617 177.384L154.409 173.501L153.086 173.506L153.355 172.214L154.679 172.209L154.994 170.736L156.558 170.133L156.124 172.204L158.831 172.195L158.561 173.486L155.855 173.496Z" fill="#4F2651"/>
<path d="M162.879 169.266L160.912 176.746L159.849 176.749L160.993 169.272L162.879 169.266ZM160.935 179C160.755 179.861 160.483 179.999 159.722 180.002C158.992 180.005 158.762 179.868 158.943 179.007C159.107 178.209 159.396 178.084 160.127 178.082C160.886 178.079 161.1 178.202 160.935 179Z" fill="#4F2651"/>
<path d="M3.62688 179.556C3.44794 180.416 3.18988 180.554 2.41362 180.557C1.68418 180.56 1.47127 180.423 1.65021 179.563C1.8159 178.765 2.08887 178.64 2.81873 178.637C3.59375 178.634 3.79216 178.758 3.62688 179.556Z" fill="#4F2651"/>
<path d="M10.8929 179.53C10.714 180.391 10.4563 180.529 9.67966 180.532C8.9498 180.534 8.73689 180.398 8.91583 179.537C9.08028 178.739 9.35449 178.614 10.0848 178.611C10.8598 178.609 11.0582 178.732 10.8929 179.53Z" fill="#4F2651"/>
<path d="M18.1592 179.504C17.9802 180.365 17.7222 180.503 16.9459 180.506C16.216 180.508 16.0035 180.372 16.1825 179.511C16.3478 178.713 16.6203 178.588 17.3506 178.586C18.126 178.583 18.3244 178.707 18.1592 179.504Z" fill="#4F2651"/>
<path d="M24.9015 172.668L26.331 172.663L26.2117 173.233C26.5903 172.832 27.3488 172.444 28.444 172.44C28.7033 172.44 28.9767 172.453 29.2356 172.485L28.9357 173.896C28.6917 173.852 28.3732 173.822 28.0534 173.824C27.0199 173.827 26.0327 174.136 25.8969 174.783L24.7312 180.448L23.3013 180.453L24.9015 172.668Z" fill="#4F2651"/>
<path d="M30.5668 175.657L34.3682 175.643C34.6362 173.985 34.2547 173.633 33.0087 173.637C31.6094 173.642 31.0017 174.104 30.5668 175.657ZM34.3541 180.198C33.5186 180.448 32.3791 180.636 31.6492 180.639C29.3676 180.647 28.1779 179.699 28.8361 176.506C29.4794 173.419 30.9363 172.432 33.2022 172.424C35.5136 172.415 36.3524 173.273 35.5442 176.819L30.2975 176.837C29.8783 178.926 30.503 179.369 32.0701 179.364C32.6181 179.362 33.6661 179.204 34.3351 178.987L34.3541 180.198Z" fill="#4F2651"/>
<path d="M39.4813 172.616L42.1125 172.607L41.842 173.899L39.212 173.908L37.8795 180.401L36.4512 180.406L37.7825 173.913L36.459 173.918L36.7283 172.626L38.0509 172.621L38.1856 172.009C38.6793 169.643 40.0625 169.332 41.5529 169.327C42.1614 169.325 42.7852 169.444 43.2575 169.612L42.6684 170.796C42.318 170.673 41.724 170.599 41.2691 170.601C40.4622 170.604 39.8549 170.851 39.6002 172.049L39.4813 172.616Z" fill="#4F2651"/>
<path d="M42.7482 172.605L44.1777 172.6L44.0584 173.17C44.437 172.769 45.1959 172.381 46.2907 172.377C46.5492 172.377 46.8243 172.39 47.0823 172.422L46.7824 173.833C46.5393 173.789 46.2203 173.759 45.9001 173.761C44.8674 173.764 43.8782 174.073 43.744 174.72L42.578 180.385L41.1484 180.39L42.7482 172.605Z" fill="#4F2651"/>
<path d="M48.4143 175.594L52.2162 175.58C52.4837 173.922 52.1022 173.569 50.8558 173.574C49.4561 173.579 48.8505 174.041 48.4143 175.594ZM52.2012 180.136C51.3657 180.385 50.2262 180.573 49.4959 180.576C47.2147 180.584 46.0246 179.636 46.6836 176.443C47.3269 173.356 48.7826 172.369 51.0497 172.361C53.3611 172.352 54.2008 173.21 53.3913 176.756L48.1446 176.774C47.7254 178.863 48.3505 179.306 49.9167 179.301C50.4652 179.299 51.5132 179.141 52.1822 178.924L52.2012 180.136Z" fill="#4F2651"/>
<path d="M60.3291 173.955C59.75 173.727 58.9278 173.56 58.1681 173.563C57.0579 173.567 56.4652 173.708 56.2551 174.721C56.1209 175.367 56.5016 175.626 57.7953 175.743C59.6962 175.905 60.3979 176.519 60.0992 178.007C59.6949 179.957 58.4502 180.544 56.4424 180.551C55.652 180.554 54.4495 180.403 53.749 180.145L54.3534 178.916C54.8559 179.144 55.8757 179.326 56.6661 179.323C57.7915 179.319 58.4 179.147 58.6088 178.119C58.7579 177.428 58.4535 177.107 57.0695 176.988C55.3194 176.842 54.4507 176.369 54.7656 174.85C55.1541 172.915 56.4755 172.341 58.4522 172.335C59.2269 172.332 60.1709 172.483 60.948 172.726L60.3291 173.955Z" fill="#4F2651"/>
<path d="M68.3614 175.86L67.4484 180.297L66.0036 180.302L66.871 176.05C67.2003 174.513 67.1369 173.64 65.6009 173.645C64.6577 173.649 63.7153 173.958 63.5969 174.543L62.4151 180.314L60.9702 180.319L63.2589 169.235L64.7037 169.229L63.9399 172.9C64.4411 172.607 65.3528 172.31 66.2347 172.307C68.1808 172.3 68.9595 172.988 68.3614 175.86Z" fill="#4F2651"/>
<path d="M72.7794 170.168C72.615 170.905 72.3876 171.027 71.7488 171.029C71.0952 171.032 70.8968 170.911 71.0608 170.174C71.1954 169.498 71.4237 169.406 72.0781 169.404C72.7164 169.402 72.9136 169.492 72.7794 170.168ZM70.5343 180.286L69.104 180.291L70.7037 172.506L72.1336 172.501L70.5343 180.286Z" fill="#4F2651"/>
<path d="M73.65 180.275L72.2192 180.28L73.7312 172.926C74.703 172.54 76.1623 172.272 77.241 172.268C79.446 172.26 80.1634 173.073 79.5814 175.897L78.6829 180.257L77.253 180.262L78.1055 176.086C78.5396 174.045 78.219 173.601 76.6839 173.606C76.0596 173.609 75.5426 173.671 74.9805 173.827L73.65 180.275Z" fill="#4F2651"/>
<path d="M86.8389 173.771C86.3679 173.587 85.6981 173.499 85.0896 173.501C83.5225 173.506 82.9161 173.921 82.4074 176.347C81.9439 178.588 82.3407 179.156 83.9069 179.151C84.8957 179.148 85.7925 178.805 85.9118 178.222L86.8389 173.771ZM83.4248 180.44C81.1602 180.448 80.2281 179.531 80.8872 176.352C81.545 173.174 82.8801 172.248 85.3439 172.239C86.3633 172.236 87.7022 172.461 88.4639 172.813L87.0572 179.646C86.4441 182.609 84.7284 183.352 82.3097 183.36C81.5504 183.362 80.3777 183.166 79.8135 182.923L80.4029 181.678C80.9667 181.922 81.9252 182.086 82.5636 182.083C84.1907 182.078 85.2089 181.616 85.5833 179.848C85.1124 180.144 84.3982 180.437 83.4248 180.44Z" fill="#4F2651"/>
<path d="M90.4856 178.128C90.3361 178.883 90.4144 179.31 90.7963 179.878L89.4455 180.556C88.9721 179.945 88.8163 179.331 89.0562 178.196L90.9264 169.137L92.3559 169.132L90.4856 178.128Z" fill="#4F2651"/>
<path d="M92.5179 172.429L94.0535 172.424C94.4396 174.22 94.7378 176.658 94.8816 178.818C96.1516 176.713 97.3922 174.5 98.3731 172.409L99.8631 172.403C98.5488 175.048 96.9763 177.738 95.3273 180.353C94.7685 181.273 94.0419 182.366 93.4665 183.151L91.8398 183.157C92.3841 182.418 93.066 181.419 93.6099 180.571C93.4334 177.811 93.0424 174.652 92.5179 172.429Z" fill="#4F2651"/>
<path d="M109.126 174.35C109.246 173.767 108.485 173.433 107.496 173.437C105.945 173.442 105.309 174.026 104.845 176.253C104.351 178.648 104.763 179.092 106.329 179.087C106.953 179.085 107.667 178.988 108.2 178.804L109.126 174.35ZM109.435 179.764C108.522 180.136 107.095 180.372 106.075 180.376C103.612 180.385 102.651 179.482 103.308 176.288C103.967 173.125 105.347 172.169 107.584 172.161C108.572 172.157 109.12 172.419 109.471 172.678L110.219 169.069L111.649 169.064L109.435 179.764Z" fill="#4F2651"/>
<path d="M114.736 170.02C114.572 170.757 114.344 170.879 113.705 170.881C113.051 170.883 112.854 170.763 113.018 170.026C113.152 169.35 113.38 169.258 114.035 169.256C114.673 169.253 114.872 169.344 114.736 170.02ZM112.491 180.138L111.061 180.143L112.661 172.358L114.091 172.353L112.491 180.138Z" fill="#4F2651"/>
<path d="M117.557 172.341L120.857 172.329L120.992 171.716C121.082 171.255 121.217 170.87 121.383 170.579C120.895 170.413 120.364 170.322 119.801 170.323C118.69 170.327 117.931 170.56 117.662 171.864L117.557 172.341ZM122.302 172.324L124.917 172.315L124.649 173.606L122.033 173.615L120.701 180.109L119.257 180.114L120.588 173.62L117.288 173.632L115.957 180.125L114.527 180.131L115.858 173.637L114.535 173.642L114.804 172.351L116.128 172.346L116.232 171.824C116.741 169.413 118.413 169.056 120.086 169.05C120.891 169.047 121.653 169.213 122.322 169.487C122.869 169.116 123.537 169.038 124.193 169.035C124.831 169.033 125.546 169.137 126.078 169.32L125.475 170.503C125.139 170.381 124.531 170.307 124.09 170.309C123.269 170.311 122.661 170.59 122.422 171.756L122.302 172.324Z" fill="#4F2651"/>
<path d="M126.247 175.319L130.049 175.305C130.317 173.647 129.935 173.294 128.688 173.299C127.29 173.304 126.682 173.766 126.247 175.319ZM130.034 179.861C129.199 180.11 128.059 180.298 127.329 180.301C125.047 180.309 123.857 179.362 124.517 176.168C125.159 173.081 126.616 172.094 128.882 172.086C131.194 172.078 132.032 172.935 131.225 176.481L125.978 176.499C125.558 178.588 126.183 179.032 127.75 179.026C128.298 179.024 129.346 178.866 130.015 178.649L130.034 179.861Z" fill="#4F2651"/>
<path d="M133.381 172.285L134.811 172.28L134.692 172.85C135.071 172.449 135.829 172.061 136.924 172.057C137.182 172.056 137.457 172.07 137.715 172.102L137.416 173.513C137.172 173.469 136.853 173.439 136.533 173.441C135.5 173.444 134.511 173.753 134.377 174.4L133.211 180.065L131.781 180.07L133.381 172.285Z" fill="#4F2651"/>
<path d="M139.047 175.274L142.849 175.261C143.116 173.602 142.735 173.249 141.488 173.254C140.088 173.259 139.483 173.721 139.047 175.274ZM142.835 179.815C141.999 180.065 140.859 180.253 140.129 180.256C137.848 180.264 136.658 179.316 137.316 176.123C137.959 173.036 139.416 172.049 141.682 172.041C143.994 172.032 144.834 172.89 144.024 176.436L138.778 176.454C138.358 178.543 138.983 178.986 140.55 178.981C141.098 178.979 142.147 178.821 142.815 178.604L142.835 179.815Z" fill="#4F2651"/>
<path d="M146.011 180.02L144.581 180.025L146.093 172.671C147.064 172.285 148.523 172.017 149.602 172.013C151.807 172.005 152.524 172.817 151.943 175.641L151.044 180.002L149.614 180.007L150.467 175.831C150.901 173.79 150.58 173.345 149.044 173.351C148.421 173.353 147.904 173.415 147.342 173.572L146.011 180.02Z" fill="#4F2651"/>
<path d="M27.842 98.05V101.444H21.1792V103.99H26.1661V107.323H21.1792V112.131H17.3232V98.05H27.842Z" fill="white"/>
<path d="M33.2128 101.747H29.5179V112.131H33.2128V101.747ZM33.4145 98.7567C33.4145 100.373 32.91 100.656 31.3554 100.656C29.8008 100.656 29.2959 100.373 29.2959 98.7567C29.2959 97.2823 29.8008 97.0597 31.3554 97.0597C32.91 97.0597 33.4145 97.2823 33.4145 98.7567Z" fill="white"/>
<path d="M36.1201 101.747H39.815V102.575C40.1584 101.929 40.7035 101.444 42.1976 101.444C42.5004 101.444 42.8434 101.464 43.2269 101.505V104.919C42.8032 104.778 42.1773 104.717 41.6525 104.717C40.6629 104.717 39.815 105.081 39.815 105.666V112.131H36.1201V101.747Z" fill="white"/>
<path d="M51.9294 104.696C51.1216 104.495 49.91 104.293 48.8401 104.293C48.1131 104.293 47.7498 104.313 47.7498 104.858C47.7498 105.242 47.9114 105.283 49.4258 105.505C51.7475 105.848 52.7976 106.535 52.7976 108.737C52.7976 111.667 50.4957 112.414 47.9317 112.414C46.7806 112.414 45.1858 112.192 44.2571 111.849L44.9232 109.121C45.7106 109.323 46.7404 109.505 47.7498 109.505C48.8198 109.505 49.2841 109.444 49.2841 108.919C49.2841 108.536 49.0016 108.394 47.3663 108.232C45.3068 108.03 44.2368 107.404 44.2368 105.101C44.2368 102.171 46.4376 101.444 49.0016 101.444C50.1523 101.444 51.6667 101.686 52.5751 102.03L51.9294 104.696Z" fill="white"/>
<path d="M59.1579 104.899V108.192C59.1579 109 59.4002 109.323 60.3893 109.323C60.9954 109.323 61.48 109.202 61.9439 109.061L62.5296 111.849C61.6817 112.192 60.3695 112.414 59.1177 112.414C56.8564 112.414 55.463 111.728 55.463 108.616V104.899H53.8276V101.747H55.463V100.413L59.1579 98.9187V101.747H62.2065V104.899H59.1579Z" fill="white"/>
<path d="M75.0477 101.444C74.6438 102.575 74.0987 104.293 73.5536 106.091H76.9253C76.3599 104.313 75.855 102.596 75.5522 101.444H75.0477ZM78.4596 98.05C79.7114 102.333 81.8517 108.515 83.3052 112.132H79.0453C78.7624 111.465 78.3991 110.495 78.0359 109.424H72.5843C72.2815 110.495 72.0392 111.444 71.8577 112.132H67.6782C68.7283 108.434 71.0906 101.747 72.5843 98.05H78.4596Z" fill="white"/>
<path d="M88.2522 104.899V108.192C88.2522 109 88.4945 109.323 89.4841 109.323C90.0897 109.323 90.5743 109.202 91.0387 109.061L91.624 111.849C90.776 112.192 89.4638 112.414 88.212 112.414C85.9508 112.414 84.5577 111.728 84.5577 108.616V104.899H82.9224V101.747H84.5577V100.413L88.2522 98.9187V101.747H91.3009V104.899H88.2522Z" fill="white"/>
<path d="M96.9952 108.98C96.9952 109.97 97.1973 110.859 97.6012 111.606L94.2091 112.657C93.6234 111.849 93.3003 110.576 93.3003 109.081V97.5447H96.9952V108.98Z" fill="white"/>
<path d="M105.838 108.131C105.475 108.051 105.01 108.03 104.526 108.03C103.718 108.03 103.415 108.131 103.415 108.879C103.415 109.606 103.577 109.747 104.465 109.747C104.93 109.747 105.455 109.667 105.838 109.525V108.131ZM109.331 111.606C107.857 112.111 105.757 112.414 104.163 112.414C100.589 112.414 99.6396 111.707 99.6396 108.98C99.6396 106.07 101.154 105.606 103.678 105.606C104.344 105.606 105.152 105.707 105.838 105.848C105.838 104.757 105.636 104.393 103.718 104.393C102.446 104.393 101.316 104.656 100.427 104.899L99.9023 102.01C101.235 101.686 103.112 101.444 104.687 101.444C107.817 101.444 109.331 102.434 109.331 105.485V111.606Z" fill="white"/>
<path d="M115.833 112.131H112.138V102.414C113.531 101.949 115.691 101.444 117.751 101.444C120.577 101.444 122.091 102.717 122.091 106.414V112.131H118.397V106.656C118.397 105.202 118.195 104.717 116.943 104.717C116.62 104.717 116.257 104.777 115.833 104.858V112.131Z" fill="white"/>
<path d="M129.098 104.899V108.192C129.098 109 129.341 109.323 130.33 109.323C130.935 109.323 131.42 109.202 131.884 109.061L132.47 111.849C131.622 112.192 130.31 112.414 129.058 112.414C126.797 112.414 125.403 111.728 125.403 108.616V104.899H123.768V101.747H125.403V100.413L129.098 98.9187V101.747H132.147V104.899H129.098Z" fill="white"/>
<path d="M137.841 101.747H134.146V112.131H137.841V101.747ZM138.042 98.7567C138.042 100.373 137.538 100.656 135.983 100.656C134.428 100.656 133.924 100.373 133.924 98.7567C133.924 97.2823 134.428 97.0597 135.983 97.0597C137.538 97.0597 138.042 97.2823 138.042 98.7567Z" fill="white"/>
<path d="M148.885 111.909C148.037 112.232 146.603 112.414 145.513 112.414C142.444 112.414 140.284 111.141 140.284 106.879C140.284 102.656 142.464 101.444 145.513 101.444C146.664 101.444 148.057 101.606 148.885 101.888L148.158 104.959C147.613 104.798 146.704 104.555 145.876 104.555C144.645 104.555 143.978 104.696 143.978 106.939C143.978 109.061 144.645 109.283 145.876 109.283C146.765 109.283 147.613 109.04 148.158 108.839L148.885 111.909Z" fill="white"/>
<path d="M57.9484 130.2C58.6352 130.2 58.9782 129.736 58.9782 128.645C58.9782 127.493 58.5946 126.968 57.8676 126.968H54.0116V130.2H57.9484ZM54.0116 124.322H57.8478C58.4737 124.322 58.7562 123.958 58.7562 122.988C58.7562 122.018 58.4737 121.655 57.8478 121.655H54.0116V124.322ZM62.5115 129.17C62.5115 131.998 61.0783 132.968 58.7967 132.968H50.7612V118.887H58.7363C61.5426 118.887 62.2493 120.059 62.2493 122.261C62.2493 124.22 61.7647 125.352 59.2408 125.554C61.9262 125.675 62.5115 126.968 62.5115 129.17Z" fill="white"/>
<path d="M75.3537 130.948C75.939 130.948 76.5852 130.847 77.0698 130.665V128.705C76.6055 128.584 76.0198 128.564 75.3939 128.564C74.2837 128.564 73.8799 128.685 73.8799 129.716C73.8799 130.766 74.1421 130.948 75.3537 130.948ZM80.0174 132.443C78.6244 132.948 76.6258 133.251 75.1114 133.251C71.6994 133.251 70.6899 132.524 70.6899 129.817C70.6899 126.907 72.2644 126.443 74.7278 126.443C75.4949 126.443 76.2824 126.544 77.0698 126.705C77.0698 125.271 76.7467 124.867 74.7278 124.867C73.5365 124.867 72.3858 125.089 71.5176 125.352L71.0329 122.887C72.2242 122.584 73.9404 122.342 75.4746 122.342C78.5639 122.342 80.0174 123.291 80.0174 126.362V132.443Z" fill="white"/>
<path d="M91.7482 132.968H88.6387V123.271C89.9712 122.786 92.0307 122.342 93.8881 122.342C96.7351 122.342 98.1484 123.534 98.1484 127.251V132.968H95.0393V127.493C95.0393 125.614 94.736 125.109 93.2221 125.109C92.7171 125.109 92.2528 125.17 91.7482 125.291V132.968Z" fill="white"/>
<path d="M113.716 132.968C111.575 129.554 110.324 127.736 109.859 127.493C110.364 127.029 111.596 125.392 113.433 122.624H117.007C115.25 125.311 113.958 126.887 113.453 127.311C113.938 127.635 115.371 129.534 117.309 132.968H113.716ZM109.859 132.968H106.75V118.381H109.859V132.968Z" fill="white"/>
</svg>
